<svg xmlns="http://www.w3.org/2000/svg" xmlns:xlink="http://www.w3.org/1999/xlink" width="300" zoomAndPan="magnify" viewBox="0 0 224.87999 49.499998" height="66" preserveAspectRatio="xMidYMid meet" version="1.0"><defs><g/><clipPath id="26318d97a3"><path d="M 1.066406 0 L 50.070312 0 L 50.070312 49.003906 L 1.066406 49.003906 Z M 1.066406 0 " clip-rule="nonzero"/></clipPath></defs><g clip-path="url(#26318d97a3)"><path fill="#49bce2" d="M 25.566406 0 C 24.765625 0 23.964844 0.0390625 23.164062 0.117188 C 22.367188 0.195312 21.574219 0.3125 20.789062 0.472656 C 20 0.628906 19.222656 0.820312 18.453125 1.054688 C 17.6875 1.289062 16.933594 1.558594 16.191406 1.863281 C 15.449219 2.171875 14.726562 2.515625 14.015625 2.894531 C 13.308594 3.273438 12.621094 3.683594 11.953125 4.128906 C 11.289062 4.574219 10.644531 5.050781 10.023438 5.5625 C 9.402344 6.070312 8.808594 6.609375 8.242188 7.175781 C 7.675781 7.742188 7.136719 8.339844 6.625 8.957031 C 6.117188 9.578125 5.640625 10.222656 5.195312 10.890625 C 4.75 11.558594 4.335938 12.246094 3.957031 12.953125 C 3.578125 13.660156 3.238281 14.382812 2.929688 15.125 C 2.621094 15.867188 2.351562 16.621094 2.121094 17.390625 C 1.886719 18.15625 1.691406 18.933594 1.535156 19.722656 C 1.378906 20.507812 1.261719 21.300781 1.183594 22.101562 C 1.105469 22.898438 1.066406 23.699219 1.066406 24.503906 C 1.066406 25.304688 1.105469 26.105469 1.183594 26.902344 C 1.261719 27.703125 1.378906 28.496094 1.535156 29.28125 C 1.691406 30.070312 1.886719 30.847656 2.121094 31.613281 C 2.351562 32.382812 2.621094 33.136719 2.929688 33.878906 C 3.238281 34.621094 3.578125 35.34375 3.957031 36.054688 C 4.335938 36.761719 4.75 37.449219 5.195312 38.117188 C 5.640625 38.78125 6.117188 39.425781 6.625 40.046875 C 7.136719 40.667969 7.675781 41.261719 8.242188 41.828125 C 8.808594 42.394531 9.402344 42.933594 10.023438 43.441406 C 10.644531 43.953125 11.289062 44.429688 11.953125 44.875 C 12.621094 45.320312 13.308594 45.734375 14.015625 46.113281 C 14.726562 46.488281 15.449219 46.832031 16.191406 47.140625 C 16.933594 47.445312 17.6875 47.71875 18.453125 47.949219 C 19.222656 48.183594 20 48.378906 20.789062 48.535156 C 21.574219 48.691406 22.367188 48.808594 23.164062 48.886719 C 23.964844 48.964844 24.765625 49.003906 25.566406 49.003906 C 26.371094 49.003906 27.171875 48.964844 27.96875 48.886719 C 28.769531 48.808594 29.5625 48.691406 30.347656 48.535156 C 31.132812 48.378906 31.914062 48.183594 32.679688 47.949219 C 33.449219 47.71875 34.203125 47.445312 34.945312 47.140625 C 35.6875 46.832031 36.410156 46.488281 37.117188 46.113281 C 37.824219 45.734375 38.511719 45.320312 39.179688 44.875 C 39.847656 44.429688 40.492188 43.953125 41.113281 43.441406 C 41.730469 42.933594 42.324219 42.394531 42.894531 41.828125 C 43.460938 41.261719 44 40.667969 44.507812 40.046875 C 45.015625 39.425781 45.496094 38.78125 45.941406 38.117188 C 46.386719 37.449219 46.796875 36.761719 47.175781 36.054688 C 47.554688 35.34375 47.898438 34.621094 48.203125 33.878906 C 48.511719 33.136719 48.78125 32.382812 49.015625 31.613281 C 49.246094 30.847656 49.441406 30.070312 49.597656 29.28125 C 49.753906 28.496094 49.875 27.703125 49.953125 26.902344 C 50.03125 26.105469 50.070312 25.304688 50.070312 24.503906 C 50.070312 23.699219 50.03125 22.898438 49.953125 22.101562 C 49.875 21.300781 49.753906 20.507812 49.597656 19.722656 C 49.441406 18.933594 49.246094 18.15625 49.015625 17.390625 C 48.78125 16.621094 48.511719 15.867188 48.203125 15.125 C 47.898438 14.382812 47.554688 13.660156 47.175781 12.953125 C 46.796875 12.246094 46.386719 11.558594 45.941406 10.890625 C 45.496094 10.222656 45.015625 9.578125 44.507812 8.957031 C 44 8.339844 43.460938 7.742188 42.894531 7.175781 C 42.324219 6.609375 41.730469 6.070312 41.113281 5.5625 C 40.492188 5.050781 39.847656 4.574219 39.179688 4.128906 C 38.511719 3.683594 37.824219 3.273438 37.117188 2.894531 C 36.410156 2.515625 35.6875 2.171875 34.945312 1.863281 C 34.203125 1.558594 33.449219 1.289062 32.679688 1.054688 C 31.914062 0.820312 31.132812 0.628906 30.347656 0.472656 C 29.5625 0.3125 28.769531 0.195312 27.96875 0.117188 C 27.171875 0.0390625 26.371094 0 25.566406 0 Z M 25.566406 1.632812 C 26.300781 1.632812 27.03125 1.667969 27.757812 1.738281 C 28.488281 1.808594 29.210938 1.910156 29.929688 2.050781 C 30.648438 2.191406 31.359375 2.363281 32.0625 2.570312 C 32.765625 2.777344 33.457031 3.019531 34.132812 3.292969 C 34.8125 3.566406 35.476562 3.871094 36.128906 4.210938 C 36.777344 4.546875 37.410156 4.914062 38.023438 5.3125 C 38.636719 5.710938 39.230469 6.140625 39.804688 6.59375 C 40.378906 7.050781 40.929688 7.53125 41.457031 8.039062 C 41.984375 8.546875 42.484375 9.082031 42.960938 9.636719 C 43.4375 10.195312 43.886719 10.773438 44.304688 11.371094 C 44.726562 11.972656 45.117188 12.589844 45.476562 13.226562 C 45.839844 13.863281 46.167969 14.515625 46.464844 15.183594 C 46.765625 15.851562 47.03125 16.535156 47.261719 17.230469 C 47.496094 17.921875 47.695312 18.628906 47.859375 19.339844 C 48.027344 20.054688 48.15625 20.773438 48.253906 21.5 C 48.347656 22.226562 48.410156 22.953125 48.4375 23.6875 L 44.351562 23.6875 L 44.351562 21.03125 C 44.351562 20.734375 44.296875 20.445312 44.183594 20.171875 C 44.066406 19.898438 43.90625 19.652344 43.695312 19.441406 C 43.484375 19.234375 43.242188 19.070312 42.964844 18.957031 C 42.691406 18.84375 42.40625 18.785156 42.105469 18.785156 L 31.285156 18.785156 L 31.285156 7.964844 C 31.285156 7.664062 31.226562 7.378906 31.113281 7.105469 C 31 6.828125 30.835938 6.585938 30.625 6.375 C 30.417969 6.164062 30.171875 6.003906 29.898438 5.886719 C 29.621094 5.773438 29.335938 5.71875 29.039062 5.71875 L 22.097656 5.71875 C 21.796875 5.71875 21.511719 5.773438 21.238281 5.886719 C 20.960938 6.003906 20.71875 6.164062 20.507812 6.375 C 20.296875 6.585938 20.136719 6.828125 20.019531 7.105469 C 19.90625 7.378906 19.851562 7.664062 19.851562 7.964844 L 19.851562 18.785156 L 9.027344 18.785156 C 8.730469 18.785156 8.445312 18.84375 8.167969 18.957031 C 7.894531 19.070312 7.652344 19.234375 7.441406 19.441406 C 7.230469 19.652344 7.066406 19.898438 6.953125 20.171875 C 6.839844 20.445312 6.78125 20.734375 6.78125 21.03125 L 6.78125 23.6875 L 2.699219 23.6875 C 2.726562 22.953125 2.785156 22.226562 2.882812 21.5 C 2.976562 20.773438 3.109375 20.054688 3.273438 19.339844 C 3.4375 18.628906 3.636719 17.921875 3.871094 17.230469 C 4.105469 16.535156 4.371094 15.851562 4.667969 15.183594 C 4.964844 14.515625 5.296875 13.863281 5.65625 13.226562 C 6.019531 12.589844 6.410156 11.972656 6.828125 11.371094 C 7.25 10.773438 7.699219 10.195312 8.175781 9.636719 C 8.648438 9.082031 9.152344 8.546875 9.679688 8.039062 C 10.207031 7.53125 10.757812 7.050781 11.328125 6.59375 C 11.902344 6.140625 12.496094 5.710938 13.109375 5.3125 C 13.726562 4.914062 14.359375 4.546875 15.007812 4.210938 C 15.65625 3.871094 16.320312 3.566406 17 3.292969 C 17.679688 3.019531 18.371094 2.777344 19.074219 2.570312 C 19.773438 2.363281 20.484375 2.191406 21.203125 2.050781 C 21.921875 1.910156 22.648438 1.808594 23.375 1.738281 C 24.105469 1.667969 24.835938 1.632812 25.566406 1.632812 Z M 20.667969 28.585938 L 9.027344 28.585938 C 8.859375 28.585938 8.714844 28.523438 8.597656 28.40625 C 8.480469 28.285156 8.417969 28.140625 8.414062 27.972656 L 8.414062 25.320312 L 18.699219 25.320312 L 20.085938 26.714844 C 20.285156 26.914062 20.523438 26.988281 20.796875 26.945312 C 21.070312 26.898438 21.269531 26.75 21.394531 26.503906 L 22.347656 24.601562 L 24.855469 28.996094 C 25.015625 29.269531 25.25 29.402344 25.566406 29.402344 C 25.898438 29.386719 26.132812 29.226562 26.269531 28.921875 L 28.835938 23.148438 L 29.699219 24.871094 C 29.859375 25.1875 30.113281 25.335938 30.46875 25.320312 L 42.71875 25.320312 L 42.71875 27.972656 C 42.71875 28.140625 42.65625 28.285156 42.539062 28.40625 C 42.417969 28.523438 42.273438 28.585938 42.105469 28.585938 L 30.46875 28.585938 C 30.242188 28.585938 30.050781 28.664062 29.890625 28.824219 C 29.730469 28.984375 29.652344 29.175781 29.652344 29.402344 L 29.652344 41.042969 C 29.648438 41.210938 29.589844 41.355469 29.46875 41.472656 C 29.351562 41.589844 29.207031 41.652344 29.039062 41.652344 L 22.097656 41.652344 C 21.929688 41.652344 21.785156 41.589844 21.664062 41.472656 C 21.546875 41.355469 21.484375 41.210938 21.484375 41.042969 L 21.484375 29.402344 C 21.484375 29.175781 21.402344 28.984375 21.246094 28.824219 C 21.085938 28.664062 20.890625 28.585938 20.667969 28.585938 Z M 30.972656 23.6875 L 29.5625 20.867188 C 29.410156 20.570312 29.167969 20.417969 28.835938 20.417969 C 28.492188 20.425781 28.25 20.585938 28.109375 20.902344 L 25.492188 26.78125 L 23.042969 22.460938 C 22.878906 22.175781 22.632812 22.039062 22.300781 22.050781 C 21.976562 22.0625 21.742188 22.210938 21.597656 22.5 L 20.472656 24.753906 L 19.652344 23.9375 C 19.484375 23.761719 19.277344 23.675781 19.035156 23.6875 L 8.414062 23.6875 L 8.414062 21.03125 C 8.417969 20.863281 8.480469 20.71875 8.597656 20.601562 C 8.714844 20.480469 8.859375 20.421875 9.027344 20.417969 L 20.667969 20.417969 C 20.890625 20.417969 21.085938 20.339844 21.246094 20.179688 C 21.402344 20.019531 21.484375 19.828125 21.484375 19.601562 L 21.484375 7.964844 C 21.484375 7.796875 21.546875 7.652344 21.664062 7.53125 C 21.785156 7.414062 21.929688 7.351562 22.097656 7.351562 L 29.039062 7.351562 C 29.207031 7.351562 29.351562 7.414062 29.46875 7.53125 C 29.589844 7.652344 29.648438 7.796875 29.652344 7.964844 L 29.652344 19.601562 C 29.652344 19.828125 29.730469 20.019531 29.890625 20.179688 C 30.050781 20.339844 30.242188 20.417969 30.46875 20.417969 L 42.105469 20.417969 C 42.273438 20.421875 42.417969 20.480469 42.539062 20.601562 C 42.65625 20.71875 42.71875 20.863281 42.71875 21.03125 L 42.71875 23.6875 Z M 25.566406 47.371094 C 24.835938 47.371094 24.105469 47.335938 23.375 47.269531 C 22.648438 47.199219 21.921875 47.09375 21.203125 46.953125 C 20.484375 46.816406 19.773438 46.640625 19.074219 46.433594 C 18.371094 46.226562 17.679688 45.984375 17 45.710938 C 16.320312 45.4375 15.65625 45.132812 15.007812 44.792969 C 14.359375 44.457031 13.726562 44.089844 13.109375 43.691406 C 12.496094 43.292969 11.902344 42.867188 11.328125 42.410156 C 10.757812 41.953125 10.207031 41.472656 9.679688 40.964844 C 9.152344 40.457031 8.648438 39.925781 8.175781 39.367188 C 7.699219 38.8125 7.25 38.234375 6.828125 37.632812 C 6.410156 37.035156 6.019531 36.414062 5.65625 35.777344 C 5.296875 35.140625 4.964844 34.488281 4.667969 33.820312 C 4.371094 33.152344 4.105469 32.46875 3.871094 31.777344 C 3.636719 31.082031 3.4375 30.378906 3.273438 29.664062 C 3.109375 28.953125 2.976562 28.230469 2.882812 27.503906 C 2.785156 26.78125 2.726562 26.050781 2.699219 25.320312 L 6.78125 25.320312 L 6.78125 27.972656 C 6.78125 28.273438 6.839844 28.558594 6.953125 28.832031 C 7.066406 29.109375 7.230469 29.351562 7.441406 29.5625 C 7.652344 29.773438 7.894531 29.933594 8.167969 30.046875 C 8.445312 30.164062 8.730469 30.21875 9.027344 30.21875 L 19.851562 30.21875 L 19.851562 41.042969 C 19.851562 41.339844 19.90625 41.625 20.019531 41.902344 C 20.136719 42.175781 20.296875 42.417969 20.507812 42.628906 C 20.71875 42.839844 20.960938 43.003906 21.238281 43.117188 C 21.511719 43.230469 21.796875 43.289062 22.097656 43.289062 L 29.039062 43.289062 C 29.335938 43.289062 29.621094 43.230469 29.898438 43.117188 C 30.171875 43.003906 30.417969 42.839844 30.625 42.628906 C 30.835938 42.417969 31 42.175781 31.113281 41.902344 C 31.226562 41.625 31.285156 41.339844 31.285156 41.042969 L 31.285156 30.21875 L 42.105469 30.21875 C 42.40625 30.21875 42.691406 30.164062 42.964844 30.046875 C 43.242188 29.933594 43.484375 29.773438 43.695312 29.5625 C 43.90625 29.351562 44.066406 29.109375 44.183594 28.832031 C 44.296875 28.558594 44.351562 28.273438 44.351562 27.972656 L 44.351562 25.320312 L 48.4375 25.320312 C 48.410156 26.050781 48.347656 26.78125 48.253906 27.503906 C 48.15625 28.230469 48.027344 28.953125 47.859375 29.664062 C 47.695312 30.378906 47.496094 31.082031 47.261719 31.777344 C 47.03125 32.46875 46.765625 33.152344 46.464844 33.820312 C 46.167969 34.488281 45.839844 35.140625 45.476562 35.777344 C 45.117188 36.414062 44.726562 37.035156 44.304688 37.632812 C 43.886719 38.234375 43.4375 38.8125 42.960938 39.367188 C 42.484375 39.925781 41.984375 40.457031 41.457031 40.964844 C 40.929688 41.472656 40.378906 41.953125 39.804688 42.410156 C 39.230469 42.867188 38.636719 43.292969 38.023438 43.691406 C 37.410156 44.089844 36.777344 44.457031 36.128906 44.792969 C 35.476562 45.132812 34.8125 45.4375 34.132812 45.710938 C 33.457031 45.984375 32.765625 46.226562 32.0625 46.433594 C 31.359375 46.640625 30.648438 46.816406 29.929688 46.953125 C 29.210938 47.09375 28.488281 47.199219 27.757812 47.269531 C 27.03125 47.335938 26.300781 47.371094 25.566406 47.371094 Z M 25.566406 47.371094 " fill-opacity="1" fill-rule="nonzero"/></g><g fill="#ffc10e" fill-opacity="1"><g transform="translate(56.383562, 30.813749)"><g><path d="M 1.53125 -12.203125 L 5.328125 -12.203125 C 7.054688 -12.203125 8.3125 -11.953125 9.09375 -11.453125 C 9.882812 -10.960938 10.28125 -10.179688 10.28125 -9.109375 C 10.28125 -8.378906 10.109375 -7.78125 9.765625 -7.3125 C 9.421875 -6.851562 8.960938 -6.578125 8.390625 -6.484375 L 8.390625 -6.390625 C 9.171875 -6.222656 9.726562 -5.898438 10.0625 -5.421875 C 10.40625 -4.953125 10.578125 -4.320312 10.578125 -3.53125 C 10.578125 -2.425781 10.175781 -1.5625 9.375 -0.9375 C 8.570312 -0.3125 7.476562 0 6.09375 0 L 1.53125 0 Z M 4.125 -7.375 L 5.625 -7.375 C 6.320312 -7.375 6.828125 -7.476562 7.140625 -7.6875 C 7.460938 -7.90625 7.625 -8.265625 7.625 -8.765625 C 7.625 -9.234375 7.453125 -9.566406 7.109375 -9.765625 C 6.765625 -9.972656 6.222656 -10.078125 5.484375 -10.078125 L 4.125 -10.078125 Z M 4.125 -5.3125 L 4.125 -2.140625 L 5.8125 -2.140625 C 6.519531 -2.140625 7.039062 -2.273438 7.375 -2.546875 C 7.71875 -2.816406 7.890625 -3.234375 7.890625 -3.796875 C 7.890625 -4.804688 7.164062 -5.3125 5.71875 -5.3125 Z M 4.125 -5.3125 "/></g></g></g><g fill="#ffc10e" fill-opacity="1"><g transform="translate(68.890874, 30.813749)"><g><path d="M 3.359375 -4.6875 C 3.359375 -3.757812 3.507812 -3.054688 3.8125 -2.578125 C 4.125 -2.109375 4.617188 -1.875 5.296875 -1.875 C 5.972656 -1.875 6.460938 -2.109375 6.765625 -2.578125 C 7.066406 -3.046875 7.21875 -3.75 7.21875 -4.6875 C 7.21875 -5.601562 7.066406 -6.289062 6.765625 -6.75 C 6.460938 -7.21875 5.96875 -7.453125 5.28125 -7.453125 C 4.601562 -7.453125 4.113281 -7.222656 3.8125 -6.765625 C 3.507812 -6.304688 3.359375 -5.613281 3.359375 -4.6875 Z M 9.8125 -4.6875 C 9.8125 -3.164062 9.410156 -1.972656 8.609375 -1.109375 C 7.804688 -0.253906 6.691406 0.171875 5.265625 0.171875 C 4.367188 0.171875 3.578125 -0.0234375 2.890625 -0.421875 C 2.210938 -0.816406 1.6875 -1.378906 1.3125 -2.109375 C 0.945312 -2.847656 0.765625 -3.707031 0.765625 -4.6875 C 0.765625 -6.207031 1.160156 -7.390625 1.953125 -8.234375 C 2.753906 -9.078125 3.875 -9.5 5.3125 -9.5 C 6.207031 -9.5 7 -9.304688 7.6875 -8.921875 C 8.375 -8.535156 8.898438 -7.976562 9.265625 -7.25 C 9.628906 -6.519531 9.8125 -5.664062 9.8125 -4.6875 Z M 9.8125 -4.6875 "/></g></g></g><g fill="#ffc10e" fill-opacity="1"><g transform="translate(80.497003, 30.813749)"><g><path d="M 3.359375 -4.6875 C 3.359375 -3.757812 3.507812 -3.054688 3.8125 -2.578125 C 4.125 -2.109375 4.617188 -1.875 5.296875 -1.875 C 5.972656 -1.875 6.460938 -2.109375 6.765625 -2.578125 C 7.066406 -3.046875 7.21875 -3.75 7.21875 -4.6875 C 7.21875 -5.601562 7.066406 -6.289062 6.765625 -6.75 C 6.460938 -7.21875 5.96875 -7.453125 5.28125 -7.453125 C 4.601562 -7.453125 4.113281 -7.222656 3.8125 -6.765625 C 3.507812 -6.304688 3.359375 -5.613281 3.359375 -4.6875 Z M 9.8125 -4.6875 C 9.8125 -3.164062 9.410156 -1.972656 8.609375 -1.109375 C 7.804688 -0.253906 6.691406 0.171875 5.265625 0.171875 C 4.367188 0.171875 3.578125 -0.0234375 2.890625 -0.421875 C 2.210938 -0.816406 1.6875 -1.378906 1.3125 -2.109375 C 0.945312 -2.847656 0.765625 -3.707031 0.765625 -4.6875 C 0.765625 -6.207031 1.160156 -7.390625 1.953125 -8.234375 C 2.753906 -9.078125 3.875 -9.5 5.3125 -9.5 C 6.207031 -9.5 7 -9.304688 7.6875 -8.921875 C 8.375 -8.535156 8.898438 -7.976562 9.265625 -7.25 C 9.628906 -6.519531 9.8125 -5.664062 9.8125 -4.6875 Z M 9.8125 -4.6875 "/></g></g></g><g fill="#ffc10e" fill-opacity="1"><g transform="translate(92.10313, 30.813749)"><g><path d="M 3.78125 -5.078125 L 4.890625 -6.5 L 7.5 -9.328125 L 10.375 -9.328125 L 6.671875 -5.28125 L 10.59375 0 L 7.65625 0 L 4.96875 -3.78125 L 3.875 -2.90625 L 3.875 0 L 1.328125 0 L 1.328125 -12.984375 L 3.875 -12.984375 L 3.875 -7.1875 L 3.75 -5.078125 Z M 3.78125 -5.078125 "/></g></g></g><g fill="#ffc10e" fill-opacity="1"><g transform="translate(103.725946, 30.813749)"><g><path d="M 1.234375 -11.75 C 1.234375 -12.570312 1.691406 -12.984375 2.609375 -12.984375 C 3.535156 -12.984375 4 -12.570312 4 -11.75 C 4 -11.351562 3.882812 -11.039062 3.65625 -10.8125 C 3.425781 -10.59375 3.078125 -10.484375 2.609375 -10.484375 C 1.691406 -10.484375 1.234375 -10.90625 1.234375 -11.75 Z M 3.875 0 L 1.328125 0 L 1.328125 -9.328125 L 3.875 -9.328125 Z M 3.875 0 "/></g></g></g><g fill="#ffc10e" fill-opacity="1"><g transform="translate(109.966706, 30.813749)"><g><path d="M 9.953125 0 L 7.40625 0 L 7.40625 -5.453125 C 7.40625 -6.117188 7.285156 -6.617188 7.046875 -6.953125 C 6.804688 -7.296875 6.425781 -7.46875 5.90625 -7.46875 C 5.1875 -7.46875 4.664062 -7.226562 4.34375 -6.75 C 4.03125 -6.28125 3.875 -5.492188 3.875 -4.390625 L 3.875 0 L 1.328125 0 L 1.328125 -9.328125 L 3.28125 -9.328125 L 3.625 -8.140625 L 3.765625 -8.140625 C 4.046875 -8.585938 4.4375 -8.925781 4.9375 -9.15625 C 5.4375 -9.382812 6.003906 -9.5 6.640625 -9.5 C 7.722656 -9.5 8.546875 -9.207031 9.109375 -8.625 C 9.671875 -8.039062 9.953125 -7.191406 9.953125 -6.078125 Z M 9.953125 0 "/></g></g></g><g fill="#ffc10e" fill-opacity="1"><g transform="translate(122.223687, 30.813749)"><g><path d="M 5.203125 -1.828125 C 5.878906 -1.828125 6.363281 -2.019531 6.65625 -2.40625 C 6.957031 -2.800781 7.109375 -3.441406 7.109375 -4.328125 L 7.109375 -4.625 C 7.109375 -5.625 6.953125 -6.34375 6.640625 -6.78125 C 6.335938 -7.21875 5.84375 -7.4375 5.15625 -7.4375 C 3.957031 -7.4375 3.359375 -6.492188 3.359375 -4.609375 C 3.359375 -3.679688 3.503906 -2.984375 3.796875 -2.515625 C 4.097656 -2.054688 4.566406 -1.828125 5.203125 -1.828125 Z M 9.484375 0.015625 C 9.484375 1.359375 9.09375 2.375 8.3125 3.0625 C 7.53125 3.757812 6.367188 4.109375 4.828125 4.109375 C 3.460938 4.109375 2.296875 3.925781 1.328125 3.5625 L 1.328125 1.515625 C 2.460938 1.992188 3.675781 2.234375 4.96875 2.234375 C 6.28125 2.234375 6.9375 1.523438 6.9375 0.109375 L 6.9375 -0.0625 L 7.015625 -1.203125 L 6.9375 -1.203125 C 6.34375 -0.285156 5.460938 0.171875 4.296875 0.171875 C 3.171875 0.171875 2.300781 -0.257812 1.6875 -1.125 C 1.070312 -1.988281 0.765625 -3.164062 0.765625 -4.65625 C 0.765625 -6.175781 1.082031 -7.363281 1.71875 -8.21875 C 2.351562 -9.070312 3.234375 -9.5 4.359375 -9.5 C 5.503906 -9.5 6.40625 -9.046875 7.0625 -8.140625 L 7.125 -8.140625 L 7.34375 -9.328125 L 9.484375 -9.328125 Z M 9.484375 0.015625 "/></g></g></g><g fill="#ffc10e" fill-opacity="1"><g transform="translate(134.063455, 30.813749)"><g><path d="M 6.71875 -10.21875 C 5.75 -10.21875 4.992188 -9.851562 4.453125 -9.125 C 3.921875 -8.394531 3.65625 -7.375 3.65625 -6.0625 C 3.65625 -3.34375 4.675781 -1.984375 6.71875 -1.984375 C 7.570312 -1.984375 8.609375 -2.195312 9.828125 -2.625 L 9.828125 -0.453125 C 8.828125 -0.0351562 7.710938 0.171875 6.484375 0.171875 C 4.703125 0.171875 3.34375 -0.363281 2.40625 -1.4375 C 1.46875 -2.519531 1 -4.066406 1 -6.078125 C 1 -7.347656 1.226562 -8.457031 1.6875 -9.40625 C 2.144531 -10.363281 2.804688 -11.097656 3.671875 -11.609375 C 4.535156 -12.117188 5.550781 -12.375 6.71875 -12.375 C 7.90625 -12.375 9.097656 -12.085938 10.296875 -11.515625 L 9.453125 -9.421875 C 8.992188 -9.628906 8.535156 -9.8125 8.078125 -9.96875 C 7.617188 -10.132812 7.164062 -10.21875 6.71875 -10.21875 Z M 6.71875 -10.21875 "/></g></g></g><g fill="#ffc10e" fill-opacity="1"><g transform="translate(145.978327, 30.813749)"><g><path d="M 7.265625 0 L 6.765625 -1.265625 L 6.703125 -1.265625 C 6.273438 -0.722656 5.832031 -0.347656 5.375 -0.140625 C 4.925781 0.0664062 4.335938 0.171875 3.609375 0.171875 C 2.710938 0.171875 2.003906 -0.0820312 1.484375 -0.59375 C 0.972656 -1.113281 0.71875 -1.84375 0.71875 -2.78125 C 0.71875 -3.78125 1.0625 -4.515625 1.75 -4.984375 C 2.445312 -5.453125 3.492188 -5.710938 4.890625 -5.765625 L 6.515625 -5.8125 L 6.515625 -6.21875 C 6.515625 -7.164062 6.03125 -7.640625 5.0625 -7.640625 C 4.3125 -7.640625 3.429688 -7.414062 2.421875 -6.96875 L 1.578125 -8.6875 C 2.660156 -9.238281 3.851562 -9.515625 5.15625 -9.515625 C 6.40625 -9.515625 7.363281 -9.242188 8.03125 -8.703125 C 8.707031 -8.160156 9.046875 -7.332031 9.046875 -6.21875 L 9.046875 0 Z M 6.515625 -4.328125 L 5.53125 -4.296875 C 4.789062 -4.265625 4.238281 -4.125 3.875 -3.875 C 3.507812 -3.632812 3.328125 -3.265625 3.328125 -2.765625 C 3.328125 -2.046875 3.738281 -1.6875 4.5625 -1.6875 C 5.15625 -1.6875 5.628906 -1.859375 5.984375 -2.203125 C 6.335938 -2.546875 6.515625 -3 6.515625 -3.5625 Z M 6.515625 -4.328125 "/></g></g></g><g fill="#ffc10e" fill-opacity="1"><g transform="translate(157.325793, 30.813749)"><g><path d="M 6.546875 -9.5 C 6.890625 -9.5 7.175781 -9.476562 7.40625 -9.4375 L 7.21875 -7.046875 C 7.007812 -7.097656 6.753906 -7.125 6.453125 -7.125 C 5.640625 -7.125 5.003906 -6.914062 4.546875 -6.5 C 4.097656 -6.082031 3.875 -5.5 3.875 -4.75 L 3.875 0 L 1.328125 0 L 1.328125 -9.328125 L 3.265625 -9.328125 L 3.640625 -7.765625 L 3.765625 -7.765625 C 4.054688 -8.285156 4.445312 -8.703125 4.9375 -9.015625 C 5.425781 -9.335938 5.960938 -9.5 6.546875 -9.5 Z M 6.546875 -9.5 "/></g></g></g><g fill="#ffc10e" fill-opacity="1"><g transform="translate(166.111551, 30.813749)"><g><path d="M 5.203125 -7.703125 C 4.660156 -7.703125 4.234375 -7.53125 3.921875 -7.1875 C 3.617188 -6.84375 3.445312 -6.351562 3.40625 -5.71875 L 6.984375 -5.71875 C 6.972656 -6.351562 6.804688 -6.84375 6.484375 -7.1875 C 6.171875 -7.53125 5.742188 -7.703125 5.203125 -7.703125 Z M 5.5625 0.171875 C 4.0625 0.171875 2.882812 -0.242188 2.03125 -1.078125 C 1.1875 -1.910156 0.765625 -3.082031 0.765625 -4.59375 C 0.765625 -6.15625 1.15625 -7.363281 1.9375 -8.21875 C 2.71875 -9.070312 3.800781 -9.5 5.1875 -9.5 C 6.5 -9.5 7.519531 -9.125 8.25 -8.375 C 8.988281 -7.625 9.359375 -6.585938 9.359375 -5.265625 L 9.359375 -4.03125 L 3.34375 -4.03125 C 3.375 -3.3125 3.585938 -2.75 3.984375 -2.34375 C 4.390625 -1.9375 4.953125 -1.734375 5.671875 -1.734375 C 6.234375 -1.734375 6.765625 -1.789062 7.265625 -1.90625 C 7.765625 -2.019531 8.289062 -2.207031 8.84375 -2.46875 L 8.84375 -0.5 C 8.394531 -0.269531 7.914062 -0.101562 7.40625 0 C 6.90625 0.113281 6.289062 0.171875 5.5625 0.171875 Z M 5.5625 0.171875 "/></g></g></g><g fill="#ffc10e" fill-opacity="1"><g transform="translate(177.23371, 30.813749)"><g/></g></g><g fill="#ffc10e" fill-opacity="1"><g transform="translate(182.698442, 30.813749)"><g><path d="M 11.53125 0 L 8.953125 0 L 8.953125 -5.265625 L 4.125 -5.265625 L 4.125 0 L 1.53125 0 L 1.53125 -12.203125 L 4.125 -12.203125 L 4.125 -7.421875 L 8.953125 -7.421875 L 8.953125 -12.203125 L 11.53125 -12.203125 Z M 11.53125 0 "/></g></g></g><g fill="#ffc10e" fill-opacity="1"><g transform="translate(196.799517, 30.813749)"><g><path d="M 9.21875 0 L 0.6875 0 L 0.6875 -1.796875 L 3.75 -4.890625 C 4.65625 -5.816406 5.242188 -6.457031 5.515625 -6.8125 C 5.796875 -7.175781 6 -7.507812 6.125 -7.8125 C 6.25 -8.125 6.3125 -8.441406 6.3125 -8.765625 C 6.3125 -9.253906 6.175781 -9.617188 5.90625 -9.859375 C 5.632812 -10.097656 5.273438 -10.21875 4.828125 -10.21875 C 4.347656 -10.21875 3.882812 -10.109375 3.4375 -9.890625 C 3 -9.679688 2.535156 -9.375 2.046875 -8.96875 L 0.65625 -10.640625 C 1.25 -11.148438 1.742188 -11.507812 2.140625 -11.71875 C 2.535156 -11.925781 2.96875 -12.085938 3.4375 -12.203125 C 3.90625 -12.316406 4.429688 -12.375 5.015625 -12.375 C 5.773438 -12.375 6.445312 -12.234375 7.03125 -11.953125 C 7.613281 -11.679688 8.066406 -11.296875 8.390625 -10.796875 C 8.710938 -10.296875 8.875 -9.722656 8.875 -9.078125 C 8.875 -8.515625 8.773438 -7.984375 8.578125 -7.484375 C 8.378906 -6.992188 8.070312 -6.488281 7.65625 -5.96875 C 7.238281 -5.457031 6.507812 -4.722656 5.46875 -3.765625 L 3.890625 -2.28125 L 3.890625 -2.171875 L 9.21875 -2.171875 Z M 9.21875 0 "/></g></g></g><g fill="#ffc10e" fill-opacity="1"><g transform="translate(207.596254, 30.813749)"><g><path d="M 6.25 0 L 3.65625 0 L 3.65625 -10.046875 L 0.34375 -10.046875 L 0.34375 -12.203125 L 9.5625 -12.203125 L 9.5625 -10.046875 L 6.25 -10.046875 Z M 6.25 0 "/></g></g></g></svg>