<svg xmlns="http://www.w3.org/2000/svg" xmlns:xlink="http://www.w3.org/1999/xlink" width="667" zoomAndPan="magnify" viewBox="0 0 500.25 109.499999" height="146" preserveAspectRatio="xMidYMid meet" version="1.0"><defs><g/><clipPath id="c2de22cf78"><path d="M 2.019531 0 L 111.023438 0 L 111.023438 109.003906 L 2.019531 109.003906 Z M 2.019531 0 " clip-rule="nonzero"/></clipPath></defs><g clip-path="url(#c2de22cf78)"><path fill="#49bce2" d="M 56.519531 0 C 54.734375 0 52.953125 0.0859375 51.179688 0.261719 C 49.402344 0.4375 47.636719 0.699219 45.886719 1.046875 C 44.136719 1.394531 42.40625 1.828125 40.699219 2.347656 C 38.992188 2.863281 37.3125 3.464844 35.664062 4.148438 C 34.015625 4.832031 32.402344 5.59375 30.828125 6.433594 C 29.253906 7.277344 27.726562 8.195312 26.242188 9.183594 C 24.757812 10.175781 23.324219 11.238281 21.945312 12.371094 C 20.566406 13.503906 19.246094 14.699219 17.980469 15.964844 C 16.71875 17.226562 15.523438 18.546875 14.390625 19.925781 C 13.257812 21.304688 12.195312 22.738281 11.203125 24.222656 C 10.210938 25.707031 9.296875 27.234375 8.453125 28.808594 C 7.613281 30.382812 6.851562 31.996094 6.167969 33.644531 C 5.484375 35.292969 4.882812 36.972656 4.367188 38.679688 C 3.847656 40.386719 3.414062 42.117188 3.066406 43.867188 C 2.71875 45.621094 2.457031 47.382812 2.28125 49.160156 C 2.105469 50.933594 2.019531 52.714844 2.019531 54.5 C 2.019531 56.285156 2.105469 58.066406 2.28125 59.84375 C 2.457031 61.621094 2.71875 63.382812 3.066406 65.132812 C 3.414062 66.882812 3.847656 68.613281 4.367188 70.320312 C 4.882812 72.03125 5.484375 73.707031 6.167969 75.359375 C 6.851562 77.007812 7.613281 78.617188 8.453125 80.191406 C 9.296875 81.765625 10.210938 83.296875 11.203125 84.78125 C 12.195312 86.265625 13.257812 87.695312 14.390625 89.078125 C 15.523438 90.457031 16.71875 91.777344 17.980469 93.039062 C 19.246094 94.300781 20.566406 95.5 21.945312 96.632812 C 23.324219 97.761719 24.757812 98.824219 26.242188 99.816406 C 27.726562 100.808594 29.253906 101.726562 30.828125 102.566406 C 32.402344 103.410156 34.015625 104.171875 35.664062 104.855469 C 37.3125 105.535156 38.992188 106.136719 40.699219 106.65625 C 42.40625 107.171875 44.136719 107.605469 45.886719 107.953125 C 47.636719 108.304688 49.402344 108.566406 51.179688 108.738281 C 52.953125 108.914062 54.734375 109.003906 56.519531 109.003906 C 58.304688 109.003906 60.085938 108.914062 61.863281 108.738281 C 63.640625 108.566406 65.402344 108.304688 67.152344 107.953125 C 68.902344 107.605469 70.632812 107.171875 72.339844 106.65625 C 74.050781 106.136719 75.726562 105.535156 77.378906 104.855469 C 79.027344 104.171875 80.636719 103.410156 82.210938 102.566406 C 83.785156 101.726562 85.316406 100.808594 86.800781 99.816406 C 88.285156 98.824219 89.714844 97.761719 91.09375 96.632812 C 92.476562 95.5 93.796875 94.300781 95.058594 93.039062 C 96.320312 91.777344 97.519531 90.457031 98.648438 89.078125 C 99.78125 87.695312 100.84375 86.265625 101.835938 84.78125 C 102.828125 83.296875 103.746094 81.765625 104.585938 80.191406 C 105.425781 78.617188 106.191406 77.007812 106.871094 75.359375 C 107.554688 73.707031 108.15625 72.03125 108.675781 70.320312 C 109.191406 68.613281 109.625 66.882812 109.972656 65.132812 C 110.324219 63.382812 110.585938 61.621094 110.757812 59.84375 C 110.933594 58.066406 111.023438 56.285156 111.023438 54.5 C 111.023438 52.714844 110.933594 50.933594 110.757812 49.160156 C 110.585938 47.382812 110.324219 45.621094 109.972656 43.867188 C 109.625 42.117188 109.191406 40.386719 108.675781 38.679688 C 108.15625 36.972656 107.554688 35.292969 106.871094 33.644531 C 106.191406 31.996094 105.425781 30.382812 104.585938 28.808594 C 103.746094 27.234375 102.828125 25.707031 101.835938 24.222656 C 100.84375 22.738281 99.78125 21.304688 98.648438 19.925781 C 97.519531 18.546875 96.320312 17.226562 95.058594 15.964844 C 93.796875 14.699219 92.476562 13.503906 91.09375 12.371094 C 89.714844 11.238281 88.285156 10.175781 86.800781 9.183594 C 85.316406 8.195312 83.785156 7.277344 82.210938 6.433594 C 80.636719 5.59375 79.027344 4.832031 77.378906 4.148438 C 75.726562 3.464844 74.050781 2.863281 72.339844 2.347656 C 70.632812 1.828125 68.902344 1.394531 67.152344 1.046875 C 65.402344 0.699219 63.640625 0.4375 61.863281 0.261719 C 60.085938 0.0859375 58.304688 0 56.519531 0 Z M 56.519531 3.632812 C 58.148438 3.632812 59.773438 3.710938 61.394531 3.863281 C 63.015625 4.019531 64.625 4.25 66.226562 4.5625 C 67.824219 4.871094 69.40625 5.257812 70.96875 5.71875 C 72.527344 6.179688 74.066406 6.714844 75.574219 7.324219 C 77.085938 7.933594 78.566406 8.613281 80.007812 9.363281 C 81.453125 10.117188 82.859375 10.933594 84.226562 11.820312 C 85.59375 12.707031 86.914062 13.65625 88.191406 14.667969 C 89.464844 15.683594 90.691406 16.753906 91.863281 17.882812 C 93.035156 19.015625 94.148438 20.199219 95.207031 21.4375 C 96.265625 22.675781 97.265625 23.960938 98.199219 25.292969 C 99.132812 26.625 100.003906 28.003906 100.808594 29.417969 C 101.609375 30.835938 102.34375 32.289062 103.007812 33.777344 C 103.671875 35.261719 104.261719 36.777344 104.78125 38.324219 C 105.296875 39.867188 105.738281 41.433594 106.109375 43.019531 C 106.476562 44.605469 106.765625 46.207031 106.980469 47.820312 C 107.195312 49.4375 107.328125 51.058594 107.386719 52.683594 L 98.304688 52.683594 L 98.304688 46.78125 C 98.304688 46.453125 98.273438 46.128906 98.207031 45.804688 C 98.144531 45.484375 98.050781 45.171875 97.925781 44.867188 C 97.796875 44.566406 97.644531 44.277344 97.460938 44.003906 C 97.28125 43.730469 97.074219 43.480469 96.839844 43.246094 C 96.609375 43.015625 96.355469 42.808594 96.085938 42.625 C 95.8125 42.445312 95.523438 42.289062 95.21875 42.164062 C 94.917969 42.039062 94.605469 41.945312 94.285156 41.878906 C 93.960938 41.816406 93.636719 41.785156 93.308594 41.785156 L 69.238281 41.785156 L 69.238281 17.710938 C 69.238281 17.386719 69.207031 17.058594 69.140625 16.738281 C 69.078125 16.417969 68.984375 16.105469 68.855469 15.800781 C 68.730469 15.496094 68.578125 15.210938 68.394531 14.9375 C 68.214844 14.664062 68.007812 14.414062 67.773438 14.179688 C 67.542969 13.949219 67.289062 13.742188 67.015625 13.558594 C 66.746094 13.375 66.457031 13.222656 66.152344 13.097656 C 65.851562 12.972656 65.539062 12.875 65.214844 12.8125 C 64.894531 12.75 64.570312 12.71875 64.242188 12.71875 L 48.800781 12.71875 C 48.472656 12.71875 48.144531 12.75 47.824219 12.8125 C 47.503906 12.875 47.191406 12.972656 46.886719 13.097656 C 46.585938 13.222656 46.296875 13.375 46.023438 13.558594 C 45.75 13.742188 45.5 13.949219 45.265625 14.179688 C 45.035156 14.414062 44.828125 14.664062 44.644531 14.9375 C 44.464844 15.210938 44.308594 15.496094 44.183594 15.800781 C 44.058594 16.105469 43.964844 16.417969 43.898438 16.738281 C 43.835938 17.058594 43.804688 17.386719 43.804688 17.710938 L 43.804688 41.785156 L 19.730469 41.785156 C 19.402344 41.785156 19.078125 41.816406 18.757812 41.878906 C 18.4375 41.945312 18.125 42.039062 17.820312 42.164062 C 17.515625 42.289062 17.230469 42.445312 16.957031 42.625 C 16.683594 42.808594 16.429688 43.015625 16.199219 43.246094 C 15.96875 43.480469 15.761719 43.730469 15.578125 44.003906 C 15.394531 44.277344 15.242188 44.566406 15.117188 44.867188 C 14.992188 45.171875 14.894531 45.484375 14.832031 45.804688 C 14.769531 46.128906 14.734375 46.453125 14.734375 46.78125 L 14.734375 52.683594 L 5.652344 52.683594 C 5.710938 51.058594 5.847656 49.4375 6.0625 47.820312 C 6.273438 46.207031 6.566406 44.605469 6.933594 43.019531 C 7.300781 41.433594 7.742188 39.867188 8.261719 38.324219 C 8.78125 36.777344 9.371094 35.261719 10.035156 33.777344 C 10.699219 32.289062 11.429688 30.835938 12.234375 29.417969 C 13.035156 28.003906 13.90625 26.625 14.839844 25.292969 C 15.777344 23.960938 16.773438 22.675781 17.832031 21.4375 C 18.890625 20.199219 20.007812 19.015625 21.179688 17.882812 C 22.351562 16.753906 23.574219 15.683594 24.851562 14.667969 C 26.125 13.65625 27.445312 12.707031 28.8125 11.820312 C 30.179688 10.933594 31.585938 10.117188 33.03125 9.363281 C 34.476562 8.613281 35.953125 7.933594 37.464844 7.324219 C 38.976562 6.714844 40.511719 6.179688 42.074219 5.71875 C 43.636719 5.257812 45.214844 4.871094 46.816406 4.5625 C 48.414062 4.25 50.023438 4.019531 51.644531 3.863281 C 53.265625 3.710938 54.890625 3.632812 56.519531 3.632812 Z M 45.621094 63.585938 L 19.730469 63.585938 C 19.550781 63.582031 19.378906 63.546875 19.214844 63.476562 C 19.046875 63.40625 18.902344 63.308594 18.773438 63.179688 C 18.648438 63.054688 18.546875 62.90625 18.476562 62.742188 C 18.40625 62.574219 18.371094 62.402344 18.371094 62.222656 L 18.371094 56.316406 L 41.242188 56.316406 L 44.332031 59.425781 C 44.769531 59.863281 45.296875 60.035156 45.910156 59.933594 C 46.519531 59.832031 46.960938 59.503906 47.238281 58.953125 L 49.363281 54.71875 L 54.941406 64.492188 C 55.101562 64.773438 55.324219 64.996094 55.609375 65.160156 C 55.890625 65.320312 56.195312 65.402344 56.519531 65.402344 C 56.859375 65.382812 57.171875 65.277344 57.453125 65.085938 C 57.734375 64.890625 57.945312 64.640625 58.082031 64.328125 L 63.789062 51.484375 L 65.714844 55.320312 C 65.875 55.640625 66.109375 55.890625 66.417969 56.070312 C 66.726562 56.253906 67.0625 56.335938 67.421875 56.316406 L 94.671875 56.316406 L 94.671875 62.222656 C 94.667969 62.402344 94.632812 62.574219 94.5625 62.742188 C 94.492188 62.90625 94.394531 63.054688 94.265625 63.179688 C 94.140625 63.308594 93.992188 63.40625 93.828125 63.476562 C 93.660156 63.546875 93.488281 63.582031 93.308594 63.585938 L 67.421875 63.585938 C 67.179688 63.585938 66.949219 63.628906 66.726562 63.722656 C 66.503906 63.816406 66.304688 63.945312 66.136719 64.117188 C 65.964844 64.289062 65.835938 64.484375 65.742188 64.707031 C 65.648438 64.929688 65.605469 65.160156 65.605469 65.402344 L 65.605469 91.289062 C 65.601562 91.46875 65.566406 91.640625 65.496094 91.808594 C 65.425781 91.972656 65.328125 92.121094 65.199219 92.246094 C 65.074219 92.375 64.925781 92.472656 64.761719 92.542969 C 64.59375 92.613281 64.421875 92.648438 64.242188 92.652344 L 48.800781 92.652344 C 48.621094 92.648438 48.445312 92.613281 48.28125 92.542969 C 48.113281 92.472656 47.96875 92.375 47.839844 92.246094 C 47.714844 92.121094 47.617188 91.972656 47.546875 91.808594 C 47.476562 91.640625 47.4375 91.46875 47.4375 91.289062 L 47.4375 65.402344 C 47.4375 65.160156 47.390625 64.929688 47.296875 64.707031 C 47.207031 64.484375 47.074219 64.285156 46.90625 64.117188 C 46.734375 63.945312 46.539062 63.816406 46.316406 63.722656 C 46.09375 63.628906 45.859375 63.585938 45.621094 63.585938 Z M 68.546875 52.683594 L 65.402344 46.417969 C 65.25 46.113281 65.027344 45.867188 64.738281 45.6875 C 64.445312 45.507812 64.128906 45.417969 63.789062 45.417969 C 63.4375 45.425781 63.117188 45.527344 62.824219 45.71875 C 62.53125 45.914062 62.3125 46.167969 62.171875 46.488281 L 56.355469 59.570312 L 50.90625 49.960938 C 50.738281 49.664062 50.503906 49.4375 50.207031 49.273438 C 49.910156 49.109375 49.59375 49.035156 49.253906 49.050781 C 48.921875 49.0625 48.617188 49.15625 48.335938 49.335938 C 48.054688 49.515625 47.839844 49.753906 47.691406 50.050781 L 45.183594 55.0625 L 43.367188 53.246094 C 42.992188 52.851562 42.53125 52.664062 41.988281 52.683594 L 18.371094 52.683594 L 18.371094 46.78125 C 18.371094 46.601562 18.40625 46.425781 18.476562 46.261719 C 18.546875 46.09375 18.648438 45.949219 18.773438 45.820312 C 18.902344 45.695312 19.046875 45.597656 19.214844 45.527344 C 19.378906 45.457031 19.550781 45.421875 19.730469 45.417969 L 45.621094 45.417969 C 45.859375 45.417969 46.09375 45.371094 46.316406 45.28125 C 46.539062 45.1875 46.734375 45.054688 46.90625 44.886719 C 47.074219 44.714844 47.207031 44.519531 47.296875 44.296875 C 47.390625 44.074219 47.4375 43.84375 47.4375 43.601562 L 47.4375 17.710938 C 47.4375 17.53125 47.476562 17.359375 47.546875 17.195312 C 47.617188 17.027344 47.714844 16.882812 47.839844 16.753906 C 47.96875 16.628906 48.113281 16.527344 48.28125 16.457031 C 48.445312 16.390625 48.621094 16.351562 48.800781 16.351562 L 64.242188 16.351562 C 64.421875 16.351562 64.59375 16.390625 64.761719 16.457031 C 64.925781 16.527344 65.074219 16.628906 65.199219 16.753906 C 65.328125 16.882812 65.425781 17.027344 65.496094 17.195312 C 65.566406 17.359375 65.601562 17.53125 65.605469 17.710938 L 65.605469 43.601562 C 65.605469 43.84375 65.648438 44.074219 65.742188 44.296875 C 65.835938 44.519531 65.964844 44.714844 66.136719 44.886719 C 66.304688 45.054688 66.503906 45.1875 66.726562 45.28125 C 66.949219 45.371094 67.179688 45.417969 67.421875 45.417969 L 93.308594 45.417969 C 93.488281 45.421875 93.660156 45.457031 93.828125 45.527344 C 93.992188 45.597656 94.140625 45.695312 94.265625 45.820312 C 94.394531 45.949219 94.492188 46.09375 94.5625 46.261719 C 94.632812 46.425781 94.667969 46.601562 94.671875 46.78125 L 94.671875 52.683594 Z M 56.519531 105.367188 C 54.890625 105.371094 53.265625 105.292969 51.644531 105.136719 C 50.023438 104.984375 48.414062 104.75 46.816406 104.441406 C 45.214844 104.132812 43.636719 103.746094 42.074219 103.285156 C 40.511719 102.824219 38.976562 102.285156 37.464844 101.679688 C 35.953125 101.070312 34.476562 100.390625 33.03125 99.636719 C 31.585938 98.886719 30.179688 98.066406 28.8125 97.183594 C 27.445312 96.296875 26.125 95.347656 24.851562 94.332031 C 23.574219 93.320312 22.351562 92.25 21.179688 91.117188 C 20.007812 89.988281 18.890625 88.804688 17.832031 87.566406 C 16.773438 86.328125 15.777344 85.042969 14.839844 83.707031 C 13.90625 82.375 13.035156 81 12.234375 79.582031 C 11.429688 78.167969 10.699219 76.714844 10.035156 75.226562 C 9.371094 73.738281 8.78125 72.222656 8.261719 70.679688 C 7.742188 69.136719 7.300781 67.570312 6.933594 65.984375 C 6.566406 64.398438 6.273438 62.796875 6.0625 61.179688 C 5.847656 59.566406 5.710938 57.945312 5.652344 56.316406 L 14.734375 56.316406 L 14.734375 62.222656 C 14.734375 62.550781 14.769531 62.875 14.832031 63.195312 C 14.894531 63.519531 14.992188 63.832031 15.117188 64.132812 C 15.242188 64.4375 15.394531 64.726562 15.578125 64.996094 C 15.761719 65.269531 15.96875 65.523438 16.199219 65.753906 C 16.429688 65.988281 16.683594 66.195312 16.957031 66.375 C 17.230469 66.558594 17.515625 66.710938 17.820312 66.835938 C 18.125 66.964844 18.4375 67.058594 18.757812 67.121094 C 19.078125 67.1875 19.402344 67.21875 19.730469 67.21875 L 43.804688 67.21875 L 43.804688 91.289062 C 43.804688 91.617188 43.835938 91.941406 43.898438 92.265625 C 43.964844 92.585938 44.058594 92.898438 44.183594 93.203125 C 44.308594 93.503906 44.464844 93.792969 44.644531 94.066406 C 44.828125 94.335938 45.035156 94.589844 45.265625 94.820312 C 45.5 95.054688 45.75 95.261719 46.023438 95.445312 C 46.296875 95.625 46.585938 95.78125 46.886719 95.90625 C 47.191406 96.03125 47.503906 96.125 47.824219 96.1875 C 48.144531 96.253906 48.472656 96.285156 48.800781 96.285156 L 64.242188 96.285156 C 64.570312 96.285156 64.894531 96.253906 65.214844 96.1875 C 65.539062 96.125 65.851562 96.03125 66.152344 95.90625 C 66.457031 95.78125 66.746094 95.625 67.015625 95.445312 C 67.289062 95.261719 67.542969 95.054688 67.773438 94.820312 C 68.007812 94.589844 68.214844 94.335938 68.394531 94.066406 C 68.578125 93.792969 68.730469 93.503906 68.855469 93.203125 C 68.984375 92.898438 69.078125 92.585938 69.140625 92.265625 C 69.207031 91.941406 69.238281 91.617188 69.238281 91.289062 L 69.238281 67.21875 L 93.308594 67.21875 C 93.636719 67.21875 93.960938 67.1875 94.285156 67.121094 C 94.605469 67.058594 94.917969 66.964844 95.21875 66.835938 C 95.523438 66.710938 95.8125 66.558594 96.085938 66.375 C 96.355469 66.195312 96.609375 65.988281 96.839844 65.753906 C 97.074219 65.523438 97.28125 65.269531 97.460938 64.996094 C 97.644531 64.726562 97.796875 64.4375 97.925781 64.132812 C 98.050781 63.832031 98.144531 63.519531 98.207031 63.195312 C 98.273438 62.875 98.304688 62.550781 98.304688 62.222656 L 98.304688 56.316406 L 107.386719 56.316406 C 107.328125 57.945312 107.195312 59.566406 106.980469 61.179688 C 106.765625 62.796875 106.476562 64.398438 106.109375 65.984375 C 105.738281 67.570312 105.296875 69.136719 104.78125 70.679688 C 104.261719 72.222656 103.671875 73.738281 103.007812 75.226562 C 102.34375 76.714844 101.609375 78.167969 100.808594 79.582031 C 100.003906 81 99.132812 82.375 98.199219 83.707031 C 97.265625 85.042969 96.265625 86.328125 95.207031 87.566406 C 94.148438 88.804688 93.035156 89.988281 91.863281 91.117188 C 90.691406 92.25 89.464844 93.320312 88.191406 94.332031 C 86.914062 95.347656 85.59375 96.296875 84.226562 97.183594 C 82.859375 98.066406 81.453125 98.886719 80.007812 99.636719 C 78.566406 100.390625 77.085938 101.070312 75.574219 101.679688 C 74.066406 102.285156 72.53125 102.824219 70.96875 103.285156 C 69.40625 103.746094 67.824219 104.132812 66.226562 104.441406 C 64.625 104.75 63.015625 104.984375 61.394531 105.136719 C 59.773438 105.292969 58.148438 105.371094 56.519531 105.367188 Z M 56.519531 105.367188 " fill-opacity="1" fill-rule="nonzero"/></g><g fill="#ffc10e" fill-opacity="1"><g transform="translate(125.064866, 68.539308)"><g><path d="M 3.421875 -27.140625 L 11.859375 -27.140625 C 15.710938 -27.140625 18.503906 -26.59375 20.234375 -25.5 C 21.972656 -24.40625 22.84375 -22.660156 22.84375 -20.265625 C 22.84375 -18.648438 22.460938 -17.320312 21.703125 -16.28125 C 20.941406 -15.238281 19.929688 -14.613281 18.671875 -14.40625 L 18.671875 -14.21875 C 20.390625 -13.832031 21.628906 -13.113281 22.390625 -12.0625 C 23.148438 -11.007812 23.53125 -9.613281 23.53125 -7.875 C 23.53125 -5.394531 22.632812 -3.460938 20.84375 -2.078125 C 19.0625 -0.691406 16.632812 0 13.5625 0 L 3.421875 0 Z M 9.171875 -16.390625 L 12.515625 -16.390625 C 14.066406 -16.390625 15.191406 -16.628906 15.890625 -17.109375 C 16.597656 -17.597656 16.953125 -18.398438 16.953125 -19.515625 C 16.953125 -20.546875 16.570312 -21.285156 15.8125 -21.734375 C 15.050781 -22.191406 13.847656 -22.421875 12.203125 -22.421875 L 9.171875 -22.421875 Z M 9.171875 -11.828125 L 9.171875 -4.75 L 12.921875 -4.75 C 14.503906 -4.75 15.671875 -5.050781 16.421875 -5.65625 C 17.179688 -6.269531 17.5625 -7.203125 17.5625 -8.453125 C 17.5625 -10.703125 15.953125 -11.828125 12.734375 -11.828125 Z M 9.171875 -11.828125 "/></g></g></g><g fill="#ffc10e" fill-opacity="1"><g transform="translate(152.884997, 68.539308)"><g><path d="M 7.484375 -10.40625 C 7.484375 -8.351562 7.816406 -6.800781 8.484375 -5.75 C 9.160156 -4.695312 10.257812 -4.171875 11.78125 -4.171875 C 13.289062 -4.171875 14.375 -4.691406 15.03125 -5.734375 C 15.695312 -6.785156 16.03125 -8.34375 16.03125 -10.40625 C 16.03125 -12.46875 15.695312 -14.007812 15.03125 -15.03125 C 14.363281 -16.0625 13.269531 -16.578125 11.75 -16.578125 C 10.238281 -16.578125 9.148438 -16.066406 8.484375 -15.046875 C 7.816406 -14.023438 7.484375 -12.476562 7.484375 -10.40625 Z M 21.828125 -10.40625 C 21.828125 -7.03125 20.9375 -4.390625 19.15625 -2.484375 C 17.375 -0.578125 14.894531 0.375 11.71875 0.375 C 9.71875 0.375 7.957031 -0.0625 6.4375 -0.9375 C 4.914062 -1.8125 3.742188 -3.0625 2.921875 -4.6875 C 2.109375 -6.320312 1.703125 -8.226562 1.703125 -10.40625 C 1.703125 -13.800781 2.585938 -16.4375 4.359375 -18.3125 C 6.128906 -20.195312 8.617188 -21.140625 11.828125 -21.140625 C 13.816406 -21.140625 15.570312 -20.707031 17.09375 -19.84375 C 18.613281 -18.976562 19.78125 -17.734375 20.59375 -16.109375 C 21.414062 -14.492188 21.828125 -12.59375 21.828125 -10.40625 Z M 21.828125 -10.40625 "/></g></g></g><g fill="#ffc10e" fill-opacity="1"><g transform="translate(178.700618, 68.539308)"><g><path d="M 7.484375 -10.40625 C 7.484375 -8.351562 7.816406 -6.800781 8.484375 -5.75 C 9.160156 -4.695312 10.257812 -4.171875 11.78125 -4.171875 C 13.289062 -4.171875 14.375 -4.691406 15.03125 -5.734375 C 15.695312 -6.785156 16.03125 -8.34375 16.03125 -10.40625 C 16.03125 -12.46875 15.695312 -14.007812 15.03125 -15.03125 C 14.363281 -16.0625 13.269531 -16.578125 11.75 -16.578125 C 10.238281 -16.578125 9.148438 -16.066406 8.484375 -15.046875 C 7.816406 -14.023438 7.484375 -12.476562 7.484375 -10.40625 Z M 21.828125 -10.40625 C 21.828125 -7.03125 20.9375 -4.390625 19.15625 -2.484375 C 17.375 -0.578125 14.894531 0.375 11.71875 0.375 C 9.71875 0.375 7.957031 -0.0625 6.4375 -0.9375 C 4.914062 -1.8125 3.742188 -3.0625 2.921875 -4.6875 C 2.109375 -6.320312 1.703125 -8.226562 1.703125 -10.40625 C 1.703125 -13.800781 2.585938 -16.4375 4.359375 -18.3125 C 6.128906 -20.195312 8.617188 -21.140625 11.828125 -21.140625 C 13.816406 -21.140625 15.570312 -20.707031 17.09375 -19.84375 C 18.613281 -18.976562 19.78125 -17.734375 20.59375 -16.109375 C 21.414062 -14.492188 21.828125 -12.59375 21.828125 -10.40625 Z M 21.828125 -10.40625 "/></g></g></g><g fill="#ffc10e" fill-opacity="1"><g transform="translate(204.516235, 68.539308)"><g><path d="M 8.40625 -11.28125 L 10.875 -14.4375 L 16.6875 -20.75 L 23.078125 -20.75 L 14.828125 -11.75 L 23.578125 0 L 17.046875 0 L 11.0625 -8.40625 L 8.625 -6.453125 L 8.625 0 L 2.96875 0 L 2.96875 -28.890625 L 8.625 -28.890625 L 8.625 -16 L 8.328125 -11.28125 Z M 8.40625 -11.28125 "/></g></g></g><g fill="#ffc10e" fill-opacity="1"><g transform="translate(230.368974, 68.539308)"><g><path d="M 2.734375 -26.109375 C 2.734375 -27.960938 3.757812 -28.890625 5.8125 -28.890625 C 7.863281 -28.890625 8.890625 -27.960938 8.890625 -26.109375 C 8.890625 -25.234375 8.628906 -24.550781 8.109375 -24.0625 C 7.597656 -23.570312 6.832031 -23.328125 5.8125 -23.328125 C 3.757812 -23.328125 2.734375 -24.253906 2.734375 -26.109375 Z M 8.625 0 L 2.96875 0 L 2.96875 -20.75 L 8.625 -20.75 Z M 8.625 0 "/></g></g></g><g fill="#ffc10e" fill-opacity="1"><g transform="translate(244.250353, 68.539308)"><g><path d="M 22.125 0 L 16.46875 0 L 16.46875 -12.125 C 16.46875 -13.625 16.203125 -14.742188 15.671875 -15.484375 C 15.140625 -16.234375 14.289062 -16.609375 13.125 -16.609375 C 11.539062 -16.609375 10.394531 -16.078125 9.6875 -15.015625 C 8.976562 -13.960938 8.625 -12.210938 8.625 -9.765625 L 8.625 0 L 2.96875 0 L 2.96875 -20.75 L 7.296875 -20.75 L 8.0625 -18.09375 L 8.375 -18.09375 C 9 -19.101562 9.863281 -19.863281 10.96875 -20.375 C 12.082031 -20.882812 13.34375 -21.140625 14.75 -21.140625 C 17.164062 -21.140625 19 -20.484375 20.25 -19.171875 C 21.5 -17.867188 22.125 -15.988281 22.125 -13.53125 Z M 22.125 0 "/></g></g></g><g fill="#ffc10e" fill-opacity="1"><g transform="translate(271.513672, 68.539308)"><g><path d="M 11.5625 -4.0625 C 13.082031 -4.0625 14.171875 -4.5 14.828125 -5.375 C 15.484375 -6.25 15.8125 -7.660156 15.8125 -9.609375 L 15.8125 -10.296875 C 15.8125 -12.515625 15.46875 -14.109375 14.78125 -15.078125 C 14.09375 -16.046875 12.988281 -16.53125 11.46875 -16.53125 C 8.8125 -16.53125 7.484375 -14.441406 7.484375 -10.265625 C 7.484375 -8.179688 7.8125 -6.625 8.46875 -5.59375 C 9.132812 -4.570312 10.164062 -4.0625 11.5625 -4.0625 Z M 21.109375 0.03125 C 21.109375 3.019531 20.238281 5.28125 18.5 6.8125 C 16.757812 8.351562 14.171875 9.125 10.734375 9.125 C 7.703125 9.125 5.113281 8.71875 2.96875 7.90625 L 2.96875 3.375 C 5.476562 4.4375 8.175781 4.96875 11.0625 4.96875 C 13.96875 4.96875 15.421875 3.398438 15.421875 0.265625 L 15.421875 -0.15625 L 15.59375 -2.6875 L 15.421875 -2.6875 C 14.097656 -0.644531 12.140625 0.375 9.546875 0.375 C 7.054688 0.375 5.125 -0.582031 3.75 -2.5 C 2.382812 -4.425781 1.703125 -7.039062 1.703125 -10.34375 C 1.703125 -13.738281 2.410156 -16.382812 3.828125 -18.28125 C 5.242188 -20.1875 7.195312 -21.140625 9.6875 -21.140625 C 12.238281 -21.140625 14.242188 -20.125 15.703125 -18.09375 L 15.859375 -18.09375 L 16.3125 -20.75 L 21.109375 -20.75 Z M 21.109375 0.03125 "/></g></g></g><g fill="#ffc10e" fill-opacity="1"><g transform="translate(297.848977, 68.539308)"><g><path d="M 14.9375 -22.734375 C 12.769531 -22.734375 11.09375 -21.921875 9.90625 -20.296875 C 8.71875 -18.671875 8.125 -16.40625 8.125 -13.5 C 8.125 -7.445312 10.394531 -4.421875 14.9375 -4.421875 C 16.84375 -4.421875 19.148438 -4.894531 21.859375 -5.84375 L 21.859375 -1.015625 C 19.640625 -0.0859375 17.15625 0.375 14.40625 0.375 C 10.457031 0.375 7.4375 -0.820312 5.34375 -3.21875 C 3.25 -5.613281 2.203125 -9.050781 2.203125 -13.53125 C 2.203125 -16.351562 2.71875 -18.820312 3.75 -20.9375 C 4.78125 -23.0625 6.253906 -24.691406 8.171875 -25.828125 C 10.097656 -26.960938 12.351562 -27.53125 14.9375 -27.53125 C 17.570312 -27.53125 20.222656 -26.890625 22.890625 -25.609375 L 21.03125 -20.9375 C 20.019531 -21.414062 19 -21.832031 17.96875 -22.1875 C 16.9375 -22.550781 15.925781 -22.734375 14.9375 -22.734375 Z M 14.9375 -22.734375 "/></g></g></g><g fill="#ffc10e" fill-opacity="1"><g transform="translate(324.351338, 68.539308)"><g><path d="M 16.15625 0 L 15.046875 -2.828125 L 14.90625 -2.828125 C 13.945312 -1.617188 12.960938 -0.78125 11.953125 -0.3125 C 10.953125 0.144531 9.640625 0.375 8.015625 0.375 C 6.023438 0.375 4.457031 -0.191406 3.3125 -1.328125 C 2.164062 -2.472656 1.59375 -4.097656 1.59375 -6.203125 C 1.59375 -8.398438 2.363281 -10.019531 3.90625 -11.0625 C 5.445312 -12.113281 7.769531 -12.695312 10.875 -12.8125 L 14.484375 -12.921875 L 14.484375 -13.828125 C 14.484375 -15.929688 13.40625 -16.984375 11.25 -16.984375 C 9.59375 -16.984375 7.644531 -16.484375 5.40625 -15.484375 L 3.53125 -19.3125 C 5.914062 -20.550781 8.5625 -21.171875 11.46875 -21.171875 C 14.25 -21.171875 16.382812 -20.566406 17.875 -19.359375 C 19.363281 -18.148438 20.109375 -16.304688 20.109375 -13.828125 L 20.109375 0 Z M 14.484375 -9.609375 L 12.28125 -9.546875 C 10.632812 -9.492188 9.410156 -9.191406 8.609375 -8.640625 C 7.804688 -8.097656 7.40625 -7.269531 7.40625 -6.15625 C 7.40625 -4.5625 8.320312 -3.765625 10.15625 -3.765625 C 11.46875 -3.765625 12.515625 -4.140625 13.296875 -4.890625 C 14.085938 -5.648438 14.484375 -6.65625 14.484375 -7.90625 Z M 14.484375 -9.609375 "/></g></g></g><g fill="#ffc10e" fill-opacity="1"><g transform="translate(349.591612, 68.539308)"><g><path d="M 14.546875 -21.140625 C 15.316406 -21.140625 15.957031 -21.082031 16.46875 -20.96875 L 16.03125 -15.671875 C 15.570312 -15.796875 15.019531 -15.859375 14.375 -15.859375 C 12.5625 -15.859375 11.148438 -15.390625 10.140625 -14.453125 C 9.128906 -13.523438 8.625 -12.226562 8.625 -10.5625 L 8.625 0 L 2.96875 0 L 2.96875 -20.75 L 7.265625 -20.75 L 8.09375 -17.265625 L 8.375 -17.265625 C 9.019531 -18.429688 9.890625 -19.367188 10.984375 -20.078125 C 12.078125 -20.785156 13.265625 -21.140625 14.546875 -21.140625 Z M 14.546875 -21.140625 "/></g></g></g><g fill="#ffc10e" fill-opacity="1"><g transform="translate(369.133857, 68.539308)"><g><path d="M 11.5625 -17.109375 C 10.363281 -17.109375 9.421875 -16.726562 8.734375 -15.96875 C 8.054688 -15.207031 7.671875 -14.128906 7.578125 -12.734375 L 15.515625 -12.734375 C 15.492188 -14.128906 15.128906 -15.207031 14.421875 -15.96875 C 13.710938 -16.726562 12.757812 -17.109375 11.5625 -17.109375 Z M 12.359375 0.375 C 9.015625 0.375 6.398438 -0.546875 4.515625 -2.390625 C 2.640625 -4.234375 1.703125 -6.847656 1.703125 -10.234375 C 1.703125 -13.703125 2.570312 -16.382812 4.3125 -18.28125 C 6.050781 -20.1875 8.457031 -21.140625 11.53125 -21.140625 C 14.457031 -21.140625 16.738281 -20.300781 18.375 -18.625 C 20.007812 -16.957031 20.828125 -14.65625 20.828125 -11.71875 L 20.828125 -8.96875 L 7.4375 -8.96875 C 7.5 -7.351562 7.972656 -6.09375 8.859375 -5.1875 C 9.753906 -4.289062 11.007812 -3.84375 12.625 -3.84375 C 13.875 -3.84375 15.054688 -3.972656 16.171875 -4.234375 C 17.285156 -4.492188 18.445312 -4.90625 19.65625 -5.46875 L 19.65625 -1.09375 C 18.664062 -0.601562 17.609375 -0.238281 16.484375 0 C 15.359375 0.25 13.984375 0.375 12.359375 0.375 Z M 12.359375 0.375 "/></g></g></g><g fill="#ffc10e" fill-opacity="1"><g transform="translate(393.872978, 68.539308)"><g/></g></g><g fill="#ffc10e" fill-opacity="1"><g transform="translate(406.028233, 68.539308)"><g><path d="M 25.65625 0 L 19.921875 0 L 19.921875 -11.71875 L 9.171875 -11.71875 L 9.171875 0 L 3.421875 0 L 3.421875 -27.140625 L 9.171875 -27.140625 L 9.171875 -16.5 L 19.921875 -16.5 L 19.921875 -27.140625 L 25.65625 -27.140625 Z M 25.65625 0 "/></g></g></g><g fill="#ffc10e" fill-opacity="1"><g transform="translate(437.393385, 68.539308)"><g><path d="M 20.5 0 L 1.515625 0 L 1.515625 -3.984375 L 8.328125 -10.875 C 10.347656 -12.945312 11.664062 -14.378906 12.28125 -15.171875 C 12.90625 -15.972656 13.351562 -16.710938 13.625 -17.390625 C 13.894531 -18.066406 14.03125 -18.773438 14.03125 -19.515625 C 14.03125 -20.597656 13.726562 -21.40625 13.125 -21.9375 C 12.53125 -22.46875 11.734375 -22.734375 10.734375 -22.734375 C 9.679688 -22.734375 8.660156 -22.492188 7.671875 -22.015625 C 6.679688 -21.535156 5.644531 -20.847656 4.5625 -19.953125 L 1.453125 -23.640625 C 2.785156 -24.785156 3.890625 -25.59375 4.765625 -26.0625 C 5.648438 -26.53125 6.609375 -26.890625 7.640625 -27.140625 C 8.679688 -27.398438 9.847656 -27.53125 11.140625 -27.53125 C 12.835938 -27.53125 14.332031 -27.21875 15.625 -26.59375 C 16.925781 -25.976562 17.9375 -25.113281 18.65625 -24 C 19.375 -22.882812 19.734375 -21.609375 19.734375 -20.171875 C 19.734375 -18.921875 19.507812 -17.75 19.0625 -16.65625 C 18.625 -15.5625 17.941406 -14.4375 17.015625 -13.28125 C 16.097656 -12.132812 14.476562 -10.5 12.15625 -8.375 L 8.671875 -5.09375 L 8.671875 -4.828125 L 20.5 -4.828125 Z M 20.5 0 "/></g></g></g><g fill="#ffc10e" fill-opacity="1"><g transform="translate(461.408669, 68.539308)"><g><path d="M 13.890625 0 L 8.125 0 L 8.125 -22.34375 L 0.765625 -22.34375 L 0.765625 -27.140625 L 21.25 -27.140625 L 21.25 -22.34375 L 13.890625 -22.34375 Z M 13.890625 0 "/></g></g></g></svg>